<svg width="1920" height="258" viewBox="0 0 1920 258" fill="none" xmlns="http://www.w3.org/2000/svg"><path d="M729.121 175.331a99.61 99.61 0 0 0-15.058-1.351c1.357-3.279 2.492-6.67 3.322-10.178 9.646-40.646-21.702-80.174-70.027-88.288-41.208-6.918-81.415 11.242-98.366 41.924-9.868-7.4-22.131-12.758-36.036-15.095-30.392-5.107-60.145 5.626-77.251 25.4a100.556 100.556 0 0 0-15.522-3.911c-47.022-7.895-92.745 17.762-102.132 57.305-7.262 30.603 9.375 60.541 39.056 76.18h437.817c8.475-37.828-20.809-74.436-65.803-81.986z" fill="#D8EDEE"/><path d="M399.734 228.439c7.347-17.019 2.807-35.224-10.046-48.201 4.818-3.595 8.671-8.22 11.022-13.667 6.961-16.12-1.617-33.795-19.294-41.438 4.795-4.527 8.682-9.881 11.293-15.93 11.063-25.595-4.644-53.88-35.076-63.18-30.438-9.299-64.07 3.907-75.133 29.506a43.93 43.93 0 0 0-2.703 8.633 68.894 68.894 0 0 0-8.035-3.022c-32.461-9.916-68.352 4.179-80.142 31.483-10.057 23.277.653 48.628 24.141 61.755-7.139 4.971-12.853 11.549-16.25 19.405-7.417 17.17-1.727 35.647 12.762 47.705-1.902 2.702-3.548 5.578-4.865 8.634a45.707 45.707 0 0 0-2.42 7.195h161.356c14.98-4.989 27.457-15.139 33.39-28.878M880 98.985a63.213 63.213 0 0 0-9.476-4.017c-29.82-9.848-63.49 2.492-75.207 27.576a44.396 44.396 0 0 0-2.939 8.483 66.362 66.362 0 0 0-7.85-3.158c-31.812-10.509-67.741 2.657-80.235 29.413-10.646 22.815-.822 48.118 22.014 61.61-7.225 4.756-13.075 11.14-16.674 18.846-3.009 6.437-4.099 13.113-3.545 19.579H880V98.985" fill="#D8EDEE"/><path d="M177.358 109.183c2.958-3.668 5.349-7.808 6.984-12.34 7.81-21.64-4.35-43.906-27.171-49.726-20.647-5.272-42.941 4.736-52.776 22.723-19.204-.5-37.867 11.227-44.391 29.3-5.305 14.703-1.157 29.686 9.344 39.374-9.344 2.988-17.291 9.97-20.666 19.332-5.446 15.075 3.034 30.593 18.93 34.65 1.405.36 2.82.588 4.233.748-.038.102-.09.199-.125.301-5.862 16.228 3.263 32.926 20.374 37.294 17.115 4.363 35.735-5.252 41.588-21.475a29.375 29.375 0 0 0 1.737-8.779c.438.122.864.253 1.298.365 27.366 6.986 57.145-8.391 66.515-34.349 8.561-23.734-2.917-48.089-25.874-57.418" fill="#D8EDEE"/><path d="M190.685 184.086c-1.283-40.316-41.177-72.114-89.108-71.035-16.475.374-31.758 4.576-44.662 11.572-.005-.281.005-.558-.005-.84-1.23-38.663-39.496-69.165-85.464-68.13-30.706.685-57.066 15.28-70.829 36.414-8.192-3.498-17.502-5.378-27.336-5.16-29.077.656-52.485 19.483-55.309 43.206-9.662-2.982-20.132-4.523-31.041-4.28-46.179 1.04-82.619 33.363-81.381 72.206.813 25.522 17.687 47.496 42.264 59.278h374.889c39.82-7.394 69.113-37.677 67.982-73.231" fill="#D8EDEE"/><path d="M681.903 160.455c-37.314-16.242-81.933-8.153-108.315 17.393-7.046-9.416-17.067-17.422-29.659-22.903-27.526-11.976-59.65-8.59-82.592 6.428a90.827 90.827 0 0 0-13.633-7.37c-42.587-18.536-94.97-4.524-116.996 31.288-14.558 23.66-12.219 50.906 3.309 72.026h388.539c18.863-35.972 1.429-78.546-40.653-96.862" fill="#00507D"/><path d="M389.688 217.255c4.818-3.596 8.671-8.221 11.022-13.667 6.961-16.121-1.617-33.795-19.294-41.438 4.795-4.528 8.682-9.882 11.293-15.93 11.063-25.595-4.644-53.881-35.076-63.18-30.438-9.304-64.07 3.906-75.133 29.505a43.915 43.915 0 0 0-2.703 8.634 68.733 68.733 0 0 0-8.035-3.022c-32.461-9.916-68.352 4.178-80.142 31.482-10.057 23.278.653 48.629 24.141 61.751-7.139 4.975-12.853 11.554-16.25 19.41-3.824 8.847-4.142 18.034-1.589 26.517h204.389c3.096-14.507-1.804-29.136-12.623-40.062M880 182.371c-24.497-9.363-54.255-3.348-70.769 15.644a48.889 48.889 0 0 0-5.403 7.574 60.08 60.08 0 0 0-6.645-4.732c-27.587-16.97-66.312-11.922-86.487 11.281-11.762 13.531-14.602 30.234-9.476 45.179H880v-74.946z" fill="#00507D"/><path d="M182.69 241.814a29.584 29.584 0 0 0-2.144-8.716c.468-.015.918-.025 1.369-.053 28.526-1.764 49.726-25.128 47.358-52.18-2.172-24.734-23.309-43.983-48.715-45.738a38.476 38.476 0 0 0 1.23-13.628c-1.97-22.553-22.847-39.64-46.63-38.162-21.525 1.33-38.038 17.417-39.513 37.176-18.133 5.344-30.52 21.941-28.874 40.772 1.344 15.324 11.626 28.048 25.569 33.907-7.44 5.617-11.867 14.537-11.008 24.292 1.376 15.718 15.925 27.626 32.495 26.596 1.462-.088 2.879-.307 4.268-.584.009.102 0 .214.012.321.361 4.13 1.578 8.002 3.452 11.5h58.155c2.334-4.659 3.461-9.95 2.976-15.503" fill="#00507D"/><path d="M226.281 244.661c-1.278-40.316-41.171-72.114-89.103-71.035-16.47.369-31.758 4.576-44.658 11.572-.008-.281 0-.558-.008-.84-1.229-38.664-39.49-69.17-85.464-68.13-30.706.685-57.062 15.28-70.83 36.414-8.19-3.498-17.501-5.383-27.335-5.16-29.077.656-52.485 19.483-55.308 43.206-9.658-2.983-20.129-4.523-31.042-4.28-45.659 1.03-81.777 32.649-81.381 70.909h484.216a62.177 62.177 0 0 0 .913-12.656" fill="#00507D"/><path d="M2037.12 175.36a99.53 99.53 0 0 0-15.06-1.35 67.761 67.761 0 0 0 3.33-10.179c9.64-40.645-21.71-80.173-70.03-88.287-41.21-6.919-81.42 11.242-98.37 41.924-9.87-7.4-22.13-12.759-36.03-15.096-30.4-5.106-60.15 5.626-77.25 25.4a100.743 100.743 0 0 0-15.53-3.911c-47.02-7.895-92.74 17.763-102.13 57.306-7.26 30.603 9.38 60.54 39.06 76.18h437.81c8.48-37.828-20.81-74.436-65.8-81.987zm-1096.978-2.258a47.527 47.527 0 0 0 2.334-.724c.16 1.321.396 2.632.692 3.935a43.903 43.903 0 0 0-3.026-3.211zm113.578 19.622c-3.45-1.229-6.98-2.055-10.52-2.56a43.151 43.151 0 0 0 2.76-4.713c11.57-23.116-1.33-49.74-28.82-59.457-15.12-5.364-31.502-4.479-45.102 1.249-2.896-12.934-13.194-24.439-28.693-29.933-18.826-6.651-39.84-2.502-53.276 9.1-3.533-2.833-7.577-5.287-12.069-7.273v148.06c16.028 5.233 33.263 3.79 47.28-2.798 2.574 4.829 6.301 9.236 10.964 12.948h132.546c4.19-3.528 7.67-7.774 10.11-12.652 10.11-20.201-1.17-43.468-25.18-51.971z" fill="#D8EDEE"/><path d="M1707.73 228.468c7.35-17.019 2.81-35.224-10.04-48.201 4.82-3.595 8.67-8.22 11.02-13.666 6.96-16.121-1.62-33.796-19.29-41.438 4.79-4.528 8.68-9.882 11.29-15.931 11.06-25.594-4.65-53.88-35.08-63.179-30.43-9.3-64.07 3.906-75.13 29.505a44.053 44.053 0 0 0-2.7 8.633 69.179 69.179 0 0 0-8.04-3.021c-32.46-9.917-68.35 4.178-80.14 31.482-10.06 23.277.65 48.628 24.14 61.756-7.14 4.97-12.85 11.549-16.25 19.405-7.42 17.169-1.73 35.646 12.76 47.705a48.27 48.27 0 0 0-4.86 8.633 45.144 45.144 0 0 0-2.42 7.196h161.35c14.98-4.99 27.46-15.139 33.39-28.879z" fill="#D8EDEE"/><path d="M1475.36 109.213c2.96-3.669 5.35-7.808 6.98-12.34 7.81-21.64-4.35-43.906-27.17-49.727-20.65-5.271-42.94 4.737-52.78 22.723-19.2-.5-37.86 11.228-44.39 29.301-5.3 14.702-1.15 29.685 9.35 39.373-9.35 2.988-17.29 9.97-20.67 19.332-5.44 15.076 3.04 30.594 18.93 34.65 1.41.36 2.82.588 4.24.749-.04.102-.1.199-.13.301-5.86 16.227 3.26 32.926 20.37 37.293 17.12 4.363 35.74-5.252 41.59-21.474a29.425 29.425 0 0 0 1.74-8.779c.44.121.86.252 1.3.364 27.36 6.986 57.14-8.39 66.51-34.349 8.56-23.734-2.92-48.089-25.87-57.417z" fill="#D8EDEE"/><path d="M1498.68 184.115c-1.28-40.315-41.17-72.113-89.1-71.035-16.48.374-31.76 4.577-44.66 11.573-.01-.282 0-.559-.01-.841-1.23-38.663-39.5-69.164-85.46-68.13-30.71.686-57.07 15.28-70.83 36.414-8.2-3.498-17.5-5.378-27.34-5.16-29.08.657-52.48 19.483-55.31 43.207-9.66-2.983-20.13-4.523-31.04-4.28-46.18 1.04-82.62 33.363-81.38 72.206.81 25.521 17.69 47.496 42.26 59.278h374.89c39.82-7.395 69.12-37.678 67.98-73.232z" fill="#D8EDEE"/><path d="M1989.9 160.484c-37.31-16.242-81.93-8.152-108.31 17.393-7.05-9.416-17.07-17.422-29.66-22.903-27.53-11.976-59.65-8.59-82.59 6.428a91.193 91.193 0 0 0-13.64-7.37c-42.58-18.535-94.97-4.524-116.99 31.288-14.56 23.661-12.22 50.907 3.31 72.027h388.54c18.86-35.972 1.43-78.547-40.66-96.863zm-901.51 72.262c-1.99-19.332-22.23-33.655-45.21-31.988-3.31.233-6.48.806-9.5 1.642.05-1.535.01-3.085-.15-4.649-2.27-22.126-25.43-38.514-51.726-36.599-14.475 1.04-26.88 7.419-34.729 16.621-8.609-9.129-22.315-14.576-37.157-13.507-18.014 1.317-32.442 11.85-37.282 25.609-.211-.053-.426-.083-.636-.131v67.561h207.7c6.24-6.743 9.63-15.377 8.69-24.559z" fill="#00507D"/><path d="M1697.69 217.284c4.82-3.595 8.67-8.221 11.02-13.667 6.96-16.12-1.62-33.795-19.29-41.437 4.79-4.529 8.68-9.883 11.29-15.931 11.06-25.594-4.65-53.88-35.08-63.18-30.43-9.303-64.07 3.907-75.13 29.506a44.008 44.008 0 0 0-2.7 8.633 69.198 69.198 0 0 0-8.04-3.022c-32.46-9.916-68.35 4.179-80.14 31.483-10.06 23.277.65 48.628 24.14 61.751-7.14 4.975-12.85 11.553-16.25 19.409-3.82 8.848-4.14 18.035-1.59 26.518h204.39c3.1-14.508-1.8-29.136-12.62-40.063z" fill="#00507D"/><path d="M1490.69 241.843c-.27-3.06-1.01-5.98-2.14-8.716.46-.014.91-.024 1.37-.053 28.52-1.764 49.72-25.128 47.35-52.179-2.17-24.735-23.31-43.984-48.71-45.738a38.593 38.593 0 0 0 1.23-13.628c-1.97-22.553-22.85-39.64-46.63-38.163-21.53 1.331-38.04 17.418-39.51 37.177-18.14 5.344-30.53 21.941-28.88 40.771 1.35 15.325 11.63 28.049 25.57 33.908-7.44 5.616-11.87 14.536-11.01 24.292 1.38 15.717 15.93 27.625 32.5 26.595 1.46-.087 2.88-.306 4.26-.583.01.102 0 .214.02.321.36 4.129 1.58 8.002 3.45 11.5h58.15c2.34-4.66 3.46-9.95 2.98-15.504z" fill="#00507D"/><path d="M1534.28 244.69c-1.28-40.315-41.17-72.113-89.1-71.035-16.47.37-31.76 4.577-44.66 11.573-.01-.282 0-.559-.01-.84-1.23-38.664-39.49-69.17-85.46-68.13-30.71.685-57.06 15.28-70.83 36.413-8.19-3.498-17.5-5.382-27.34-5.159-29.07.655-52.48 19.482-55.31 43.206-9.65-2.983-20.12-4.523-31.04-4.28-45.66 1.03-81.77 32.648-81.38 70.909h484.22c.71-4.12 1.05-8.347.91-12.657" fill="#00507D"/></svg>