<svg width="1920" height="228" viewBox="0 0 1920 228" fill="none" xmlns="http://www.w3.org/2000/svg"><path d="M729.121 154.673a112.486 112.486 0 0 0-15.058-1.191c1.358-2.893 2.492-5.885 3.322-8.979 9.646-35.857-21.702-70.728-70.027-77.886-41.208-6.103-81.415 9.918-98.366 36.985-9.868-6.529-22.131-11.256-36.036-13.317-30.392-4.505-60.145 4.963-77.251 22.407a111.77 111.77 0 0 0-15.522-3.45c-47.022-6.965-92.745 15.67-102.132 50.553-7.262 26.998 9.375 53.408 39.056 67.205h437.817c8.475-33.371-20.809-65.666-65.803-72.327z" fill="#D8EDEE"/><path d="M399.734 201.524c7.347-15.014 2.807-31.074-10.046-42.522 4.818-3.171 8.671-7.252 11.022-12.056 6.961-14.221-1.617-29.814-19.294-36.556 4.795-3.994 8.682-8.717 11.293-14.053 11.063-22.58-4.644-47.532-35.076-55.736-30.438-8.204-64.07 3.446-75.133 26.029a35.516 35.516 0 0 0-2.703 7.616 74.857 74.857 0 0 0-8.035-2.666c-32.461-8.748-68.352 3.686-80.142 27.773-10.057 20.535.653 42.899 24.141 54.48-7.139 4.385-12.853 10.188-16.25 17.119-7.417 15.146-1.727 31.446 12.762 42.084-1.902 2.383-3.548 4.921-4.865 7.616a37.16 37.16 0 0 0-2.42 6.348h161.356c14.98-4.402 27.457-13.355 33.39-25.476zM880 87.323a68.026 68.026 0 0 0-9.476-3.544c-29.82-8.688-63.49 2.198-75.207 24.327a36.16 36.16 0 0 0-2.939 7.483 71.999 71.999 0 0 0-7.85-2.786c-31.812-9.27-67.741 2.345-80.235 25.948-10.646 20.127-.822 42.449 22.014 54.351-7.225 4.196-13.075 9.828-16.674 16.625-3.009 5.679-4.099 11.568-3.545 17.273H880V87.323z" fill="#D8EDEE"/><path d="M177.358 96.32c2.958-3.237 5.349-6.889 6.984-10.887 7.81-19.09-4.35-38.733-27.171-43.868-20.647-4.65-42.942 4.179-52.776 20.046-19.204-.441-37.867 9.905-44.391 25.85-5.305 12.969-1.157 26.187 9.344 34.733-9.344 2.636-17.291 8.795-20.666 17.054-5.446 13.3 3.034 26.989 18.93 30.568 1.405.317 2.82.519 4.233.66-.038.09-.09.176-.125.266-5.862 14.315 3.263 29.046 20.374 32.899 17.115 3.849 35.735-4.633 41.588-18.944 1.057-2.593 1.621-5.195 1.737-7.745.438.107.864.223 1.298.322 27.366 6.163 57.145-7.402 66.515-30.302 8.561-20.938-2.917-42.424-25.874-50.653z" fill="#D8EDEE"/><path d="M190.685 162.397c-1.283-35.566-41.177-63.617-89.108-62.666-16.475.33-31.758 4.038-44.662 10.209-.005-.248.005-.493-.005-.741-1.23-34.108-39.496-61.016-85.464-60.103-30.706.604-57.066 13.48-70.829 32.123-8.192-3.085-17.502-4.744-27.336-4.551-29.077.578-52.485 17.187-55.309 38.115-9.662-2.631-20.132-3.99-31.041-3.775-46.179.917-82.619 29.431-81.381 63.698.813 22.515 17.687 41.9 42.264 52.294h374.889c39.82-6.523 69.113-33.238 67.982-64.603z" fill="#D8EDEE"/><path d="M681.903 141.55c-37.314-14.329-81.933-7.192-108.315 15.344-7.046-8.307-17.067-15.37-29.659-20.205-27.526-10.565-59.65-7.578-82.592 5.671a95.23 95.23 0 0 0-13.633-6.502c-42.587-16.352-94.97-3.991-116.996 27.602-14.558 20.873-12.219 44.909 3.309 63.54h388.539c18.863-31.734 1.429-69.292-40.653-85.45z" fill="#fff"/><path d="M389.688 191.658c4.818-3.172 8.671-7.253 11.022-12.057 6.961-14.221-1.617-29.813-19.294-36.555 4.795-3.995 8.682-8.719 11.293-14.054 11.063-22.579-4.644-47.533-35.076-55.736-30.438-8.207-64.07 3.446-75.133 26.03a35.494 35.494 0 0 0-2.703 7.615 74.745 74.745 0 0 0-8.035-2.665c-32.461-8.748-68.352 3.686-80.142 27.773-10.057 20.535.653 42.899 24.141 54.475-7.139 4.389-12.853 10.192-16.25 17.123-3.824 7.805-4.142 15.909-1.589 23.393h204.389c3.096-12.798-1.804-25.703-12.623-35.342zM880 160.884c-24.497-8.26-54.255-2.953-70.769 13.801a43.591 43.591 0 0 0-5.403 6.682 60.512 60.512 0 0 0-6.645-4.175c-27.587-14.971-66.312-10.518-86.487 9.952-11.762 11.937-14.602 26.672-9.476 39.856H880v-66.116z" fill="#fff"/><path d="M182.69 213.323a23.625 23.625 0 0 0-2.144-7.689c.468-.013.918-.021 1.369-.047 28.526-1.556 49.726-22.167 47.358-46.032-2.172-21.82-23.309-38.801-48.715-40.349a30.114 30.114 0 0 0 1.23-12.022c-1.97-19.896-22.847-34.97-46.63-33.666-21.525 1.174-38.038 15.365-39.513 32.796-18.133 4.715-30.52 19.356-28.874 35.968 1.344 13.519 11.626 24.744 25.569 29.913-7.44 4.954-11.867 12.823-11.008 21.43 1.376 13.865 15.925 24.37 32.495 23.462 1.462-.078 2.879-.271 4.268-.515.009.09 0 .189.012.283.361 3.643 1.578 7.059 3.452 10.145h58.155c2.334-4.11 3.461-8.778 2.976-13.677z" fill="#fff"/><path d="M226.281 215.835c-1.277-35.565-41.171-63.617-89.103-62.666-16.47.326-31.758 4.037-44.658 10.209-.008-.248 0-.493-.008-.741-1.229-34.108-39.49-61.02-85.464-60.103-30.706.604-57.062 13.48-70.83 32.123-8.19-3.085-17.501-4.748-27.335-4.551-29.077.578-52.485 17.187-55.308 38.116-9.658-2.632-20.129-3.991-31.042-3.777-45.659.909-81.777 28.803-81.381 62.555h484.216c.716-3.635 1.051-7.363.913-11.165" fill="#fff"/><path d="M2037.12 154.699c-5.05-.75-10.09-1.127-15.06-1.191 1.36-2.893 2.49-5.885 3.33-8.979 9.64-35.857-21.71-70.728-70.03-77.886-41.21-6.103-81.42 9.918-98.37 36.985-9.87-6.529-22.13-11.256-36.03-13.317-30.4-4.505-60.15 4.963-77.25 22.407a111.853 111.853 0 0 0-15.53-3.45c-47.02-6.965-92.74 15.67-102.13 50.553-7.26 26.998 9.38 53.408 39.06 67.205h437.81c8.48-33.371-20.81-65.666-65.8-72.327zm-1096.978-1.992a52.457 52.457 0 0 0 2.334-.639c.16 1.166.396 2.323.692 3.472a41.096 41.096 0 0 0-3.026-2.833zm113.578 17.311c-3.45-1.085-6.98-1.813-10.52-2.259a37.443 37.443 0 0 0 2.76-4.157c11.57-20.393-1.33-43.881-28.82-52.453-15.12-4.732-31.502-3.951-45.102 1.102-2.896-11.41-13.194-21.56-28.693-26.406-18.826-5.868-39.84-2.207-53.276 8.027-3.533-2.498-7.577-4.663-12.069-6.416v130.617c16.028 4.616 33.263 3.343 47.28-2.469 2.574 4.26 6.301 8.147 10.964 11.422h132.546c4.19-3.112 7.67-6.858 10.11-11.161 10.11-17.821-1.17-38.347-25.18-45.847z" fill="#D8EDEE"/><path d="M1707.73 201.55c7.35-15.014 2.81-31.074-10.04-42.522 4.82-3.171 8.67-7.252 11.02-12.056 6.96-14.221-1.62-29.814-19.29-36.556 4.79-3.994 8.68-8.717 11.29-14.053 11.06-22.58-4.65-47.532-35.08-55.736s-64.07 3.446-75.13 26.029a35.612 35.612 0 0 0-2.7 7.616 75.17 75.17 0 0 0-8.04-2.666c-32.46-8.748-68.35 3.686-80.14 27.773-10.06 20.535.65 42.899 24.14 54.48-7.14 4.385-12.85 10.188-16.25 17.119-7.42 15.146-1.73 31.446 12.76 42.084-1.9 2.383-3.54 4.921-4.86 7.616a36.666 36.666 0 0 0-2.42 6.348h161.35c14.98-4.402 27.46-13.355 33.39-25.476z" fill="#D8EDEE"/><path d="M1475.36 96.345c2.96-3.236 5.35-6.888 6.98-10.886 7.81-19.09-4.35-38.733-27.17-43.868-20.65-4.65-42.94 4.179-52.78 20.046-19.2-.441-37.86 9.905-44.39 25.85-5.3 12.969-1.15 26.187 9.35 34.733-9.35 2.636-17.29 8.795-20.67 17.054-5.44 13.3 3.04 26.989 18.93 30.568 1.41.317 2.82.519 4.24.66-.04.09-.1.176-.13.266-5.86 14.315 3.26 29.046 20.37 32.899 17.12 3.849 35.74-4.633 41.59-18.944 1.06-2.593 1.62-5.195 1.74-7.745.44.107.86.223 1.3.322 27.36 6.163 57.14-7.402 66.51-30.302 8.56-20.938-2.92-42.424-25.87-50.653z" fill="#D8EDEE"/><path d="M1498.68 162.423c-1.28-35.566-41.17-63.617-89.1-62.666-16.48.33-31.76 4.038-44.66 10.209-.01-.248 0-.493-.01-.741-1.23-34.108-39.5-61.016-85.46-60.103-30.71.604-57.07 13.48-70.83 32.124-8.2-3.086-17.5-4.745-27.34-4.552-29.08.578-52.48 17.187-55.31 38.115-9.66-2.631-20.13-3.99-31.04-3.775-46.18.917-82.62 29.431-81.38 63.698.81 22.515 17.69 41.9 42.26 52.294h374.89c39.82-6.523 69.12-33.238 67.98-64.603z" fill="#D8EDEE"/><path d="M1989.9 141.576c-37.31-14.329-81.93-7.192-108.31 15.344-7.05-8.307-17.07-15.37-29.66-20.205-27.53-10.565-59.65-7.578-82.59 5.671a95.525 95.525 0 0 0-13.64-6.502c-42.58-16.352-94.97-3.991-116.99 27.602-14.56 20.873-12.22 44.909 3.31 63.54h388.54c18.86-31.734 1.43-69.292-40.66-85.45zM950.565 198.318a37.413 37.413 0 0 0 1.475-1.213 37.385 37.385 0 0 0 2.471 2.508 55.682 55.682 0 0 0-3.946-1.295zm143.825 7.042c-1.99-17.054-22.23-29.689-45.21-28.219-3.31.206-6.48.712-9.5 1.449.05-1.355.01-2.722-.15-4.102-2.27-19.518-25.43-33.976-51.726-32.286-14.475.917-26.88 6.544-34.729 14.662-8.609-8.053-22.315-12.858-37.157-11.915-18.014 1.161-32.442 10.453-37.282 22.591-.211-.047-.426-.072-.636-.115v59.601h207.7c6.24-5.949 9.63-13.565 8.69-21.666z" fill="#fff"/><path d="M1697.69 191.684c4.82-3.172 8.67-7.253 11.02-12.057 6.96-14.221-1.62-29.813-19.29-36.555 4.79-3.995 8.68-8.719 11.29-14.054 11.06-22.579-4.65-47.533-35.08-55.736-30.43-8.207-64.07 3.446-75.13 26.03a35.59 35.59 0 0 0-2.7 7.615 75.057 75.057 0 0 0-8.04-2.665c-32.46-8.748-68.35 3.686-80.14 27.773-10.06 20.535.65 42.899 24.14 54.475-7.14 4.389-12.85 10.192-16.25 17.123-3.82 7.805-4.14 15.909-1.59 23.393h204.39c3.1-12.798-1.8-25.703-12.62-35.342z" fill="#fff"/><path d="M1490.69 213.349a23.62 23.62 0 0 0-2.14-7.689c.46-.013.91-.021 1.37-.047 28.52-1.556 49.72-22.167 47.35-46.032-2.17-21.82-23.31-38.801-48.71-40.349a30.204 30.204 0 0 0 1.23-12.022c-1.97-19.896-22.85-34.97-46.63-33.666-21.53 1.174-38.04 15.365-39.51 32.796-18.14 4.715-30.53 19.356-28.88 35.968 1.35 13.519 11.63 24.744 25.57 29.913-7.44 4.954-11.87 12.823-11.01 21.43 1.38 13.865 15.93 24.37 32.5 23.462 1.46-.078 2.88-.271 4.26-.515.01.09 0 .189.02.283.36 3.643 1.58 7.059 3.45 10.145h58.15c2.34-4.11 3.46-8.778 2.98-13.677z" fill="#fff"/><path d="M1534.28 215.861c-1.28-35.565-41.17-63.617-89.1-62.666-16.47.326-31.76 4.037-44.66 10.209-.01-.248 0-.493-.01-.741-1.23-34.108-39.49-61.02-85.46-60.103-30.71.604-57.06 13.48-70.83 32.123-8.19-3.085-17.5-4.748-27.34-4.551-29.07.578-52.48 17.187-55.31 38.116-9.65-2.632-20.12-3.991-31.04-3.777-45.66.909-81.77 28.803-81.38 62.555h484.22c.71-3.635 1.05-7.363.91-11.165" fill="#fff"/></svg>