<svg width="206" height="1083" viewBox="0 0 206 1083" fill="none" xmlns="http://www.w3.org/2000/svg"><path opacity=".69" fill-rule="evenodd" clip-rule="evenodd" d="M86.783 320.696l-19.275 55.626L33 1083h140l-34.508-706.678-19.277-55.626-16.217 1.836-16.215-1.836z" fill="#fff"/><path opacity=".69" fill-rule="evenodd" clip-rule="evenodd" d="M95.962 318l-8.367 55.625L72.618 1080.3h60.761l-14.977-706.675L110.038 318 103 319.836 95.962 318z" fill="#fff"/><path fill-rule="evenodd" clip-rule="evenodd" d="M87.423 328.897c-.766.875-12.48 7.333-12.48 7.333s-1.859 1.847-4.486 10.813c-2.628 8.961-3.504 17.707-3.504 16.94 0-.765 5.146-6.668 5.146-6.668s-2.299 11.041-2.408 21.096c-.11 10.057 1.312 19.237 1.203 18.036-.11-1.201 3.283-9.728 3.283-9.728s1.096 12.023 5.255 22.955c4.16 10.931 7.225 16.615 7.005 15.085-.217-1.53 2.847-12.025 2.847-12.025s1.752 15.085 7.88 28.42a476.145 476.145 0 0 0 5.475 11.55 486.578 486.578 0 0 0 5.474-11.55c6.129-13.335 7.881-28.42 7.881-28.42s3.064 10.495 2.847 12.025c-.22 1.53 2.845-4.154 7.004-15.085 4.16-10.932 5.255-22.955 5.255-22.955s3.394 8.527 3.284 9.728c-.11 1.201 1.313-7.979 1.203-18.036-.11-10.055-2.408-21.096-2.408-21.096s5.144 5.903 5.144 6.668c0 .767-.874-7.979-3.502-16.94-2.627-8.966-4.487-10.813-4.487-10.813s-11.713-6.458-12.479-7.333l-15.216-.429-15.216.429z" fill="#F9B059"/><path fill-rule="evenodd" clip-rule="evenodd" d="M76.356 345.003l4.414-4.945-3.748 18.264c-.79 3.855-1.44 7.99-1.845 12.097l2.037-5.191 1.967 21.023c.651 6.956 2.483 15.16 4.948 21.64.25.657.505 1.317.76 1.974l6.563-22.329 2.823 24.624c.998 8.589 3.882 19.121 7.456 26.901.302.655.604 1.309.907 1.962.304-.653.607-1.307.907-1.962 3.576-7.78 6.458-18.31 7.456-26.899l2.825-24.626 6.563 22.329c.256-.657.508-1.317.758-1.974 2.467-6.48 4.299-14.684 4.948-21.64l1.967-21.023 2.039 5.191a119.583 119.583 0 0 0-1.847-12.097l-3.748-18.264 4.416 4.945c-.604-1.793-1.333-3.734-2.032-4.941a461.795 461.795 0 0 1-5.395-3.038c-1.223-.7-3.549-1.952-5.347-3.156l-13.51-.381-13.51.381c-1.797 1.204-4.123 2.456-5.346 3.156a428.46 428.46 0 0 1-5.396 3.038c-.697 1.207-1.428 3.148-2.03 4.941z" fill="#F7CE78"/><path fill-rule="evenodd" clip-rule="evenodd" d="M102.639 423.591c1.104-4.115 1.923-8.288 2.362-12.116l6.218-54.218 8.742 29.74 2.509-26.824-3.637-17.722a29.187 29.187 0 0 1-.338-.194c-1.401-.801-2.807-1.572-4.18-2.406l-11.676-.329-11.675.329c-1.373.834-2.78 1.605-4.18 2.406-.113.066-.227.13-.34.194l-3.512 17.119c-.02.338-.05.877-.066 1.215l2.45 26.212 8.742-29.742 6.218 54.218c.439 3.829 1.258 8.001 2.363 12.118z" fill="#F6F0EB"/><path fill-rule="evenodd" clip-rule="evenodd" d="M76.66 312.35h52.68l8.295 31.089h-69.27l8.296-31.089z" fill="#265FA6"/><path fill-rule="evenodd" clip-rule="evenodd" d="M74.651 319.882h2.2l-2.61 10.608c-.988 4.021-2.05 8.33-3.188 12.949h-2.688l3.458-12.951c1.002-3.759 1.945-7.29 2.828-10.606zm5.444 0H82.3l-2.066 10.608-2.524 12.949h-2.695l2.794-12.949c.81-3.761 1.57-7.292 2.286-10.608zm5.448 0h2.205l-1.521 10.608-1.861 12.949h-2.694c.76-4.619 1.469-8.928 2.129-12.949l1.742-10.608zm5.449 0h2.205c-.306 3.316-.63 6.847-.978 10.608l-1.196 12.949h-2.695l1.464-12.949 1.2-10.608zm5.448 0h2.208l-.437 10.608-.53 12.949h-2.694c.284-4.619.55-8.928.8-12.949l.654-10.608zm5.449 0h2.205l.11 10.608c.04 4.021.084 8.33.134 12.949h-2.695l.135-12.949.111-10.608zm5.449 0h2.205c.205 3.316.423 6.847.653 10.608l.799 12.949h-2.697l-.528-12.949c-.152-3.761-.297-7.292-.432-10.608zm5.448 0h2.207c.373 3.319.771 6.847 1.196 10.608.453 4.021.939 8.328 1.462 12.949h-2.695l-1.194-12.949c-.345-3.761-.671-7.292-.976-10.608zm5.448 0h2.207c.543 3.319 1.123 6.847 1.741 10.608l2.125 12.949h-2.694l-1.857-12.949-1.522-10.608zm5.449 0h2.207c.713 3.319 1.474 6.847 2.284 10.608.866 4.021 1.793 8.328 2.79 12.949h-2.695l-2.522-12.949c-.731-3.761-1.417-7.289-2.064-10.608zm5.449 0h2.218l2.828 10.608c1.074 4.021 2.224 8.328 3.456 12.949h-2.708l-3.185-12.949c-.925-3.761-1.794-7.289-2.609-10.608z" fill="#22589C"/><path fill-rule="evenodd" clip-rule="evenodd" d="M57.794 264.738c-1.077.86-47.563 32.059-50.434 36.576C4.488 305.833 0 354.243 0 354.243l22.077-27.54 44.575-9.135-8.858-52.83z" fill="#E4761D"/><path fill-rule="evenodd" clip-rule="evenodd" d="M56.186 292.848c-14.915 5.795-36.15 14.165-36.15 14.165L0 354.243l22.076-27.54 44.576-9.135c-3.946-7.931-7.431-16.193-10.466-24.72z" fill="#DB6E00"/><path fill-rule="evenodd" clip-rule="evenodd" d="M20.037 307.013L0 354.241l22.076-27.537-2.04-19.691z" fill="#CE6612"/><path fill-rule="evenodd" clip-rule="evenodd" d="M148.206 264.738c1.077.86 47.563 32.059 50.436 36.576 2.87 4.519 7.357 52.929 7.357 52.929l-22.074-27.54-44.576-9.135 8.857-52.83z" fill="#E4761D"/><path fill-rule="evenodd" clip-rule="evenodd" d="M149.814 292.848c14.915 5.795 36.15 14.165 36.15 14.165L206 354.243l-22.076-27.54-44.576-9.135c3.948-7.931 7.431-16.193 10.466-24.72z" fill="#DB6E00"/><path fill-rule="evenodd" clip-rule="evenodd" d="M185.963 307.013l20.036 47.228-22.075-27.537 2.039-19.691z" fill="#CE6612"/><path fill-rule="evenodd" clip-rule="evenodd" d="M103.001 0c64.836 81.397 83.439 222.912 36.347 317.569H66.652C19.56 222.912 38.163 81.397 103 0z" fill="#E5EEF9"/><path fill-rule="evenodd" clip-rule="evenodd" d="M103.001 0C82.027 26.33 65.893 58.948 55.253 94.235h95.494C140.107 58.948 123.973 26.33 103.001 0z" fill="#E4761D"/><path fill-rule="evenodd" clip-rule="evenodd" d="M150.746 94.236H55.253a355.522 355.522 0 0 0-2.176 7.53h99.845a328.163 328.163 0 0 0-2.176-7.53z" fill="#4985C8"/><path fill-rule="evenodd" clip-rule="evenodd" d="M103.001 206.87c19.639 0 35.656-15.996 35.656-35.608 0-19.614-16.017-35.608-35.656-35.608-19.641 0-35.658 15.994-35.658 35.608 0 19.612 16.017 35.608 35.658 35.608z" fill="#E47D7D"/><path fill-rule="evenodd" clip-rule="evenodd" d="M103.001 201.814c16.851 0 30.593-13.725 30.593-30.552 0-16.827-13.742-30.552-30.593-30.552-16.85 0-30.595 13.725-30.595 30.552 0 16.827 13.744 30.552 30.595 30.552z" fill="#17B8F7"/><path fill-rule="evenodd" clip-rule="evenodd" d="M130.811 167.297c0 18.467-14.989 33.436-33.482 33.436-.96 0-1.91-.04-2.85-.119a30.71 30.71 0 0 0 8.522 1.2c16.896 0 30.593-13.678 30.593-30.553a30.38 30.38 0 0 0-5.862-17.988 33.258 33.258 0 0 1 3.079 14.024z" fill="#0EA8EE"/><path fill-rule="evenodd" clip-rule="evenodd" d="M103.001 137.371l.452.217.453.22.111.487.112.489-.313.393-.314.392h-1.004l-.313-.392-.314-.393.111-.489.112-.487.453-.22.454-.217zm-23.998 9.926l.473-.166.476-.164.424.266.426.267.057.499.054.498-.352.356-.357.354-.5-.056-.498-.057-.267-.425-.27-.424.167-.475.167-.473zm-9.94 23.964l.217-.451.218-.452.49-.112.49-.111.393.312.393.314v1.002l-.393.313-.393.314-.49-.112-.49-.111-.218-.453-.217-.453zm9.94 23.965l-.167-.473-.166-.475.269-.423.267-.426.499-.056.499-.057.357.356.352.354-.054.499-.057.498-.426.269-.424.266-.476-.166-.473-.166zm23.998 9.926l-.454-.217-.453-.217-.112-.49-.111-.489.314-.392.313-.393h1.004l.314.393.313.392-.112.489-.111.49-.453.217-.452.217zm23.997-9.926l-.473.166-.476.166-.426-.266-.424-.269-.057-.498-.056-.499.354-.354.357-.356.499.057.499.056.267.426.269.423-.166.475-.167.473zm9.94-23.965l-.218.453-.218.453-.49.111-.49.112-.393-.314-.393-.313v-1.002l.393-.314.393-.312.49.111.49.112.218.452.218.451zm-9.94-23.964l.167.473.166.475-.269.424-.267.425-.499.057-.499.056-.357-.354-.354-.356.056-.498.057-.499.424-.267.426-.266.476.164.473.166z" fill="#31587D"/><path fill-rule="evenodd" clip-rule="evenodd" d="M66.651 329.232h72.697v-11.664H66.651v11.664z" fill="#4985C8"/><path fill-rule="evenodd" clip-rule="evenodd" d="M71.949 321.702l.788.378.786.38.196.849.194.851-.545.683-.545.681h-1.748l-.543-.681-.547-.683.196-.851.194-.849.786-.38.788-.378zm15.525 0l.788.378.787.38.193.849.196.851-.545.683-.545.681H86.6l-.543-.681-.544-.683.193-.851.194-.849.786-.38.788-.378zm15.527 0l.786.378.788.38.194.849.194.851-.545.683-.543.681h-1.748l-.545-.681-.545-.683.194-.851.196-.849.786-.38.788-.378zm15.525 0l.788.378.786.38.196.849.193.851-.544.683-.545.681h-1.748l-.543-.681-.545-.683.194-.851.193-.849.788-.38.787-.378zm15.525 0l.788.378.786.38.196.849.194.851-.545.683-.545.681h-1.748l-.543-.681-.547-.683.196-.851.194-.849.788-.38.786-.378z" fill="#31587D"/><path fill-rule="evenodd" clip-rule="evenodd" d="M103 270.499l5.701 21.721L103 354.241v-83.742z" fill="#AC5A2A"/><path fill-rule="evenodd" clip-rule="evenodd" d="M103.001 270.499L97.3 292.22l5.7 62.021v-83.742z" fill="#DB6E00"/><path fill-rule="evenodd" clip-rule="evenodd" d="M99.577 9.393c-7.098 5.512-30.299 60.382-36.124 77.784h21.694c3.044-24.282 7.28-51.928 14.43-77.784z" fill="#EA926A"/><path fill-rule="evenodd" clip-rule="evenodd" d="M55.833 108.951s-8.775 39.438-9.05 72.85c-.138 16.712 5.737 104.57 18.375 114.758l21.941-.822.002-86.82c-28.725-6.584-33.325-60.433 1.234-77.236l-.41-24.376c-10.798.002-21.308.963-32.092 1.646z" fill="#FCFDFF"/><path fill-rule="evenodd" clip-rule="evenodd" d="M97.25 197.39c-11.796-.942-21.118-12.425-21.118-26.453 0-14.028 9.322-25.511 21.118-26.455v52.908z" fill="#3DC6FA"/><path fill-rule="evenodd" clip-rule="evenodd" d="M48.911 274.033l2.4 10.201-37.985 21.295-9.668 27.183 5.278-30.917 39.975-27.762z" fill="#E58044"/></svg>