<svg width="1920" height="228" viewBox="0 0 1920 228" fill="none" xmlns="http://www.w3.org/2000/svg">
<path d="M729.121 154.673C724.066 153.923 719.029 153.546 714.063 153.482C715.421 150.589 716.555 147.597 717.385 144.503C727.031 108.646 695.683 73.7749 647.358 66.6172C606.15 60.5138 565.943 76.5347 548.992 103.602C539.124 97.0734 526.861 92.3463 512.956 90.2848C482.564 85.7796 452.811 95.2479 435.705 112.692C430.766 111.217 425.591 110.048 420.183 109.242C373.161 102.277 327.438 124.912 318.051 159.795C310.789 186.793 327.426 213.203 357.107 227H794.924C803.399 193.629 774.115 161.334 729.121 154.673Z" fill="#D8EDEE"/>
<path d="M399.734 201.524C407.081 186.51 402.541 170.45 389.688 159.002C394.506 155.831 398.359 151.75 400.71 146.946C407.671 132.725 399.093 117.132 381.416 110.39C386.211 106.396 390.098 101.673 392.709 96.3366C403.772 73.7576 388.065 48.8046 357.633 40.6013C327.195 32.3973 293.563 44.0469 282.5 66.6298C281.269 69.1504 280.386 71.6962 279.797 74.246C277.243 73.2348 274.569 72.339 271.762 71.5803C239.301 62.8323 203.41 75.2664 191.62 99.3535C181.563 119.888 192.273 142.252 215.761 153.833C208.622 158.218 202.908 164.021 199.511 170.952C192.094 186.098 197.784 202.398 212.273 213.036C210.371 215.419 208.725 217.957 207.408 220.652C206.38 222.752 205.582 224.874 204.988 227H366.344C381.324 222.598 393.801 213.645 399.734 201.524Z" fill="#D8EDEE"/>
<path d="M880 87.3228C877.044 85.9558 873.882 84.7598 870.524 83.7785C840.704 75.0908 807.034 85.977 795.317 108.106C794.013 110.574 793.057 113.078 792.378 115.589C789.887 114.539 787.27 113.601 784.528 112.803C752.716 103.533 716.787 115.148 704.293 138.751C693.647 158.878 703.471 181.2 726.307 193.102C719.082 197.298 713.232 202.93 709.633 209.727C706.624 215.406 705.534 221.295 706.088 227H880V87.3228Z" fill="#D8EDEE"/>
<path d="M177.358 96.3193C180.316 93.0831 182.707 89.4314 184.342 85.4331C192.152 66.3429 179.992 46.7001 157.171 41.5654C136.524 36.9151 114.229 45.7439 104.395 61.6111C85.1905 61.1698 66.5284 71.516 60.0035 87.4601C54.6994 100.43 58.8469 113.648 69.3479 122.194C60.0035 124.83 52.0567 130.989 48.6817 139.248C43.2365 152.548 51.7164 166.237 67.6117 169.816C69.0166 170.133 70.4313 170.335 71.845 170.476C71.8067 170.566 71.7548 170.652 71.72 170.742C65.8577 185.057 74.9825 199.788 92.0941 203.641C109.209 207.49 127.829 199.008 133.682 184.697C134.739 182.104 135.303 179.502 135.419 176.952C135.857 177.059 136.283 177.175 136.717 177.274C164.083 183.437 193.862 169.872 203.232 146.972C211.793 126.034 200.315 104.548 177.358 96.3193Z" fill="#D8EDEE"/>
<path d="M190.685 162.397C189.402 126.831 149.508 98.7797 101.577 99.7312C85.1021 100.061 69.8186 103.769 56.9151 109.94C56.9105 109.692 56.9197 109.447 56.9105 109.199C55.6807 75.0908 17.4143 48.183 -28.5542 49.0961C-59.2597 49.7004 -85.6202 62.5752 -99.3828 81.2195C-107.575 78.1336 -116.885 76.4751 -126.719 76.6679C-155.796 77.2464 -179.204 93.855 -182.028 114.783C-191.69 112.152 -202.16 110.793 -213.069 111.008C-259.248 111.925 -295.688 140.439 -294.45 174.706C-293.637 197.221 -276.763 216.606 -252.186 227H122.703C162.523 220.477 191.816 193.762 190.685 162.397Z" fill="#D8EDEE"/>
<path d="M681.903 141.55C644.589 127.221 599.97 134.358 573.588 156.894C566.542 148.587 556.521 141.524 543.929 136.689C516.403 126.124 484.279 129.111 461.337 142.36C457.143 139.929 452.602 137.739 447.704 135.858C405.117 119.506 352.734 131.867 330.708 163.46C316.15 184.333 318.489 208.369 334.017 227H722.556C741.419 195.266 723.985 157.708 681.903 141.55Z" fill="white"/>
<path d="M389.688 191.658C394.506 188.486 398.359 184.405 400.71 179.601C407.671 165.38 399.093 149.788 381.416 143.046C386.211 139.051 390.098 134.327 392.709 128.992C403.772 106.413 388.065 81.4593 357.633 73.256C327.195 65.0488 293.563 76.7023 282.5 99.2852C281.269 101.805 280.386 104.351 279.797 106.901C277.243 105.89 274.569 104.994 271.762 104.236C239.301 95.4877 203.41 107.922 191.62 132.009C181.563 152.544 192.273 174.908 215.761 186.484C208.622 190.873 202.908 196.676 199.511 203.607C195.687 211.412 195.369 219.516 197.922 227H402.311C405.407 214.202 400.507 201.297 389.688 191.658Z" fill="white"/>
<path d="M880 160.884C855.503 152.624 825.745 157.931 809.231 174.685C807.123 176.828 805.337 179.065 803.828 181.367C801.774 179.884 799.568 178.482 797.183 177.192C769.596 162.221 730.871 166.674 710.696 187.144C698.934 199.081 696.094 213.816 701.22 227H880V160.884Z" fill="white"/>
<path d="M182.69 213.323C182.417 210.623 181.679 208.047 180.546 205.634C181.014 205.621 181.464 205.613 181.915 205.587C210.441 204.031 231.641 183.42 229.273 159.555C227.101 137.735 205.964 120.754 180.558 119.206C181.747 115.396 182.204 111.35 181.788 107.184C179.818 87.2884 158.941 72.2144 135.158 73.5178C113.633 74.6919 97.1196 88.8833 95.6452 106.314C77.5117 111.029 65.1245 125.67 66.7705 142.282C68.1155 155.801 78.3968 167.026 92.3398 172.195C84.9003 177.149 80.4732 185.018 81.3324 193.625C82.7077 207.49 97.2571 217.995 113.827 217.087C115.289 217.009 116.706 216.816 118.095 216.572C118.104 216.662 118.095 216.761 118.107 216.855C118.468 220.498 119.685 223.914 121.559 227H179.714C182.048 222.89 183.175 218.222 182.69 213.323Z" fill="white"/>
<path d="M226.281 215.835C225.004 180.27 185.11 152.218 137.178 153.169C120.708 153.495 105.42 157.206 92.5201 163.378C92.5122 163.13 92.5201 162.885 92.5123 162.637C91.2834 128.529 53.0214 101.617 7.04846 102.534C-23.6579 103.138 -50.014 116.014 -63.7811 134.657C-71.9725 131.572 -81.2831 129.909 -91.1169 130.106C-120.194 130.684 -143.602 147.293 -146.425 168.222C-156.083 165.59 -166.554 164.231 -177.467 164.445C-223.126 165.354 -259.244 193.248 -258.848 227H225.368C226.084 223.365 226.419 219.637 226.281 215.835" fill="white"/>
<path d="M2037.12 154.699C2032.07 153.949 2027.03 153.572 2022.06 153.508C2023.42 150.615 2024.55 147.623 2025.39 144.529C2035.03 108.672 2003.68 73.8009 1955.36 66.6432C1914.15 60.5398 1873.94 76.5607 1856.99 103.628C1847.12 97.0994 1834.86 92.3723 1820.96 90.3108C1790.56 85.8056 1760.81 95.2739 1743.71 112.718C1738.77 111.243 1733.59 110.074 1728.18 109.268C1681.16 102.303 1635.44 124.938 1626.05 159.821C1618.79 186.819 1635.43 213.229 1665.11 227.026H2102.92C2111.4 193.655 2082.11 161.36 2037.12 154.699Z" fill="#D8EDEE"/>
<path d="M940.142 152.707C940.938 152.509 941.715 152.295 942.476 152.068C942.636 153.234 942.872 154.391 943.168 155.54C942.227 154.554 941.208 153.619 940.142 152.707ZM1053.72 170.018C1050.27 168.933 1046.74 168.205 1043.2 167.759C1044.21 166.43 1045.14 165.046 1045.96 163.602C1057.53 143.209 1044.63 119.721 1017.14 111.149C1002.02 106.417 985.638 107.198 972.038 112.251C969.142 100.841 958.844 90.6918 943.345 85.8447C924.519 79.9772 903.505 83.6375 890.069 93.8724C886.536 91.3737 882.492 89.2089 878 87.4562V218.073C894.028 222.689 911.263 221.416 925.28 215.604C927.854 219.864 931.581 223.751 936.244 227.026H1068.79C1072.98 223.914 1076.46 220.168 1078.9 215.865C1089.01 198.044 1077.73 177.518 1053.72 170.018Z" fill="#D8EDEE"/>
<path d="M1707.73 201.55C1715.08 186.536 1710.54 170.476 1697.69 159.028C1702.51 155.857 1706.36 151.776 1708.71 146.972C1715.67 132.751 1707.09 117.158 1689.42 110.416C1694.21 106.422 1698.1 101.699 1700.71 96.3626C1711.77 73.7836 1696.06 48.8306 1665.63 40.6273C1635.2 32.4233 1601.56 44.0729 1590.5 66.6558C1589.27 69.1764 1588.39 71.7222 1587.8 74.272C1585.24 73.2608 1582.57 72.365 1579.76 71.6063C1547.3 62.8583 1511.41 75.2924 1499.62 99.3795C1489.56 119.914 1500.27 142.278 1523.76 153.859C1516.62 158.244 1510.91 164.047 1507.51 170.978C1500.09 186.124 1505.78 202.424 1520.27 213.062C1518.37 215.445 1516.73 217.983 1515.41 220.678C1514.38 222.778 1513.58 224.9 1512.99 227.026H1674.34C1689.32 222.624 1701.8 213.671 1707.73 201.55Z" fill="#D8EDEE"/>
<path d="M1475.36 96.3453C1478.32 93.1091 1480.71 89.4574 1482.34 85.4591C1490.15 66.3689 1477.99 46.7261 1455.17 41.5914C1434.52 36.9411 1412.23 45.7699 1402.39 61.6371C1383.19 61.1958 1364.53 71.542 1358 87.4861C1352.7 100.456 1356.85 113.674 1367.35 122.22C1358 124.856 1350.06 131.015 1346.68 139.274C1341.24 152.574 1349.72 166.263 1365.61 169.842C1367.02 170.159 1368.43 170.361 1369.85 170.502C1369.81 170.592 1369.75 170.678 1369.72 170.768C1363.86 185.083 1372.98 199.814 1390.09 203.667C1407.21 207.516 1425.83 199.034 1431.68 184.723C1432.74 182.13 1433.3 179.528 1433.42 176.978C1433.86 177.085 1434.28 177.201 1434.72 177.3C1462.08 183.463 1491.86 169.898 1501.23 146.998C1509.79 126.06 1498.31 104.574 1475.36 96.3453Z" fill="#D8EDEE"/>
<path d="M1498.68 162.423C1497.4 126.857 1457.51 98.8057 1409.58 99.7572C1393.1 100.087 1377.82 103.795 1364.92 109.966C1364.91 109.718 1364.92 109.473 1364.91 109.225C1363.68 75.1168 1325.41 48.209 1279.45 49.1221C1248.74 49.7264 1222.38 62.6012 1208.62 81.2455C1200.42 78.1596 1191.12 76.5011 1181.28 76.6939C1152.2 77.2724 1128.8 93.881 1125.97 114.809C1116.31 112.178 1105.84 110.819 1094.93 111.034C1048.75 111.951 1012.31 140.465 1013.55 174.732C1014.36 197.247 1031.24 216.632 1055.81 227.026H1430.7C1470.52 220.503 1499.82 193.788 1498.68 162.423Z" fill="#D8EDEE"/>
<path d="M1989.9 141.576C1952.59 127.247 1907.97 134.384 1881.59 156.92C1874.54 148.613 1864.52 141.55 1851.93 136.715C1824.4 126.15 1792.28 129.137 1769.34 142.386C1765.14 139.955 1760.6 137.765 1755.7 135.884C1713.12 119.532 1660.73 131.893 1638.71 163.486C1624.15 184.359 1626.49 208.395 1642.02 227.026H2030.56C2049.42 195.292 2031.99 157.734 1989.9 141.576Z" fill="white"/>
<path d="M950.565 198.318C951.077 197.92 951.567 197.513 952.04 197.105C952.809 197.967 953.638 198.803 954.511 199.613C953.226 199.133 951.907 198.708 950.565 198.318ZM1094.39 205.36C1092.4 188.306 1072.16 175.671 1049.18 177.141C1045.87 177.347 1042.7 177.853 1039.68 178.59C1039.73 177.235 1039.69 175.868 1039.53 174.488C1037.26 154.97 1014.1 140.512 987.804 142.202C973.329 143.119 960.924 148.746 953.075 156.864C944.466 148.811 930.76 144.006 915.918 144.949C897.904 146.11 883.476 155.402 878.636 167.54C878.425 167.493 878.21 167.468 878 167.425V227.026H1085.7C1091.94 221.077 1095.33 213.461 1094.39 205.36Z" fill="white"/>
<path d="M1697.69 191.684C1702.51 188.512 1706.36 184.431 1708.71 179.627C1715.67 165.406 1707.09 149.814 1689.42 143.072C1694.21 139.077 1698.1 134.353 1700.71 129.018C1711.77 106.439 1696.06 81.4853 1665.63 73.282C1635.2 65.0748 1601.56 76.7283 1590.5 99.3112C1589.27 101.831 1588.39 104.377 1587.8 106.927C1585.24 105.916 1582.57 105.02 1579.76 104.262C1547.3 95.5137 1511.41 107.948 1499.62 132.035C1489.56 152.57 1500.27 174.934 1523.76 186.51C1516.62 190.899 1510.91 196.702 1507.51 203.633C1503.69 211.438 1503.37 219.542 1505.92 227.026H1710.31C1713.41 214.228 1708.51 201.323 1697.69 191.684Z" fill="white"/>
<path d="M1490.69 213.349C1490.42 210.649 1489.68 208.073 1488.55 205.66C1489.01 205.647 1489.46 205.639 1489.92 205.613C1518.44 204.057 1539.64 183.446 1537.27 159.581C1535.1 137.761 1513.96 120.78 1488.56 119.232C1489.75 115.422 1490.2 111.376 1489.79 107.21C1487.82 87.3144 1466.94 72.2404 1443.16 73.5438C1421.63 74.7179 1405.12 88.9093 1403.65 106.34C1385.51 111.055 1373.12 125.696 1374.77 142.308C1376.12 155.827 1386.4 167.052 1400.34 172.221C1392.9 177.175 1388.47 185.044 1389.33 193.651C1390.71 207.516 1405.26 218.021 1421.83 217.113C1423.29 217.035 1424.71 216.842 1426.09 216.598C1426.1 216.688 1426.09 216.787 1426.11 216.881C1426.47 220.524 1427.69 223.94 1429.56 227.026H1487.71C1490.05 222.916 1491.17 218.248 1490.69 213.349Z" fill="white"/>
<path d="M1534.28 215.861C1533 180.296 1493.11 152.244 1445.18 153.195C1428.71 153.521 1413.42 157.232 1400.52 163.404C1400.51 163.156 1400.52 162.911 1400.51 162.663C1399.28 128.555 1361.02 101.643 1315.05 102.56C1284.34 103.164 1257.99 116.04 1244.22 134.683C1236.03 131.598 1226.72 129.935 1216.88 130.132C1187.81 130.71 1164.4 147.319 1161.57 168.248C1151.92 165.616 1141.45 164.257 1130.53 164.471C1084.87 165.38 1048.76 193.274 1049.15 227.026H1533.37C1534.08 223.391 1534.42 219.663 1534.28 215.861" fill="white"/>
</svg>
