<svg width="1920" height="258" viewBox="0 0 1920 258" fill="none" xmlns="http://www.w3.org/2000/svg">
<path d="M729.121 175.331C724.066 174.481 719.029 174.053 714.063 173.98C715.42 170.701 716.555 167.31 717.385 163.802C727.031 123.156 695.683 83.628 647.358 75.5144C606.15 68.5958 565.943 86.7564 548.992 117.438C539.124 110.038 526.861 104.68 512.956 102.343C482.564 97.236 452.811 107.969 435.705 127.743C430.766 126.071 425.591 124.745 420.183 123.832C373.161 115.937 327.438 141.594 318.051 181.137C310.789 211.74 327.426 241.678 357.107 257.317H794.924C803.399 219.489 774.115 182.881 729.121 175.331Z" fill="#D8EDEE"/>
<path d="M399.734 228.439C407.081 211.42 402.541 193.215 389.688 180.238C394.506 176.643 398.359 172.018 400.71 166.571C407.671 150.451 399.093 132.776 381.416 125.133C386.211 120.606 390.098 115.252 392.709 109.203C403.772 83.6084 388.065 55.3227 357.633 46.0238C327.195 36.7242 293.563 49.9296 282.5 75.5286C281.269 78.3859 280.386 81.2717 279.797 84.162C277.243 83.0158 274.569 82.0003 271.762 81.1402C239.301 71.2239 203.41 85.3187 191.62 112.623C181.563 135.9 192.273 161.251 215.761 174.378C208.622 179.349 202.908 185.927 199.511 193.783C192.094 210.953 197.784 229.43 212.273 241.488C210.371 244.19 208.725 247.066 207.408 250.122C206.38 252.502 205.582 254.907 204.988 257.317H366.344C381.324 252.328 393.801 242.178 399.734 228.439" fill="#D8EDEE"/>
<path d="M880 98.9854C877.044 97.4358 873.882 96.08 870.524 94.9676C840.704 85.1196 807.034 97.4598 795.317 122.544C794.013 125.342 793.057 128.18 792.378 131.027C789.887 129.836 787.27 128.773 784.528 127.869C752.716 117.36 716.787 130.526 704.293 157.282C693.647 180.097 703.471 205.4 726.307 218.892C719.082 223.648 713.232 230.032 709.633 237.738C706.624 244.175 705.534 250.851 706.088 257.317H880V98.9854" fill="#D8EDEE"/>
<path d="M177.358 109.183C180.316 105.515 182.707 101.375 184.342 96.8432C192.152 75.2034 179.992 52.9372 157.171 47.1167C136.524 41.8454 114.23 51.8533 104.395 69.8397C85.1905 69.3394 66.5284 81.0674 60.0035 99.1409C54.6994 113.843 58.8469 128.826 69.3479 138.514C60.0035 141.502 52.0567 148.484 48.6817 157.846C43.2365 172.921 51.7164 188.439 67.6117 192.496C69.0166 192.856 70.4313 193.084 71.845 193.244C71.8067 193.346 71.7548 193.443 71.72 193.545C65.8577 209.773 74.9825 226.471 92.0941 230.839C109.209 235.202 127.829 225.587 133.682 209.364C134.739 206.425 135.303 203.476 135.419 200.585C135.857 200.707 136.283 200.838 136.717 200.95C164.083 207.936 193.862 192.559 203.232 166.601C211.793 142.867 200.315 118.512 177.358 109.183" fill="#D8EDEE"/>
<path d="M190.685 184.086C189.402 143.77 149.508 111.972 101.577 113.051C85.1021 113.425 69.8186 117.627 56.9151 124.623C56.9105 124.342 56.9197 124.065 56.9105 123.783C55.6807 85.1196 17.4143 54.6181 -28.5542 55.6532C-59.2597 56.3382 -85.6202 70.9325 -99.3828 92.0668C-107.575 88.5688 -116.885 86.6887 -126.719 86.9073C-155.796 87.563 -179.204 106.39 -182.028 130.113C-191.69 127.131 -202.16 125.59 -213.069 125.833C-259.248 126.873 -295.688 159.196 -294.45 198.039C-293.637 223.561 -276.763 245.535 -252.186 257.317H122.703C162.523 249.923 191.816 219.64 190.685 184.086" fill="#D8EDEE"/>
<path d="M681.903 160.455C644.589 144.213 599.97 152.302 573.588 177.848C566.542 168.432 556.521 160.426 543.929 154.945C516.403 142.969 484.279 146.355 461.337 161.373C457.143 158.618 452.602 156.135 447.704 154.003C405.117 135.467 352.734 149.479 330.708 185.291C316.15 208.951 318.489 236.197 334.017 257.317H722.556C741.419 221.345 723.985 178.771 681.903 160.455" fill="#00507D"/>
<path d="M389.688 217.255C394.506 213.659 398.359 209.034 400.71 203.588C407.671 187.467 399.093 169.793 381.416 162.15C386.211 157.622 390.098 152.268 392.709 146.22C403.772 120.625 388.065 92.3386 357.633 83.0397C327.195 73.7364 293.563 86.9463 282.5 112.545C281.269 115.402 280.386 118.288 279.797 121.179C277.243 120.032 274.569 119.017 271.762 118.157C239.301 108.241 203.41 122.335 191.62 149.639C181.563 172.917 192.273 198.268 215.761 211.39C208.622 216.365 202.908 222.944 199.511 230.8C195.687 239.647 195.369 248.834 197.922 257.317H402.311C405.407 242.81 400.507 228.181 389.688 217.255" fill="#00507D"/>
<path d="M880 182.371C855.503 173.008 825.745 179.023 809.231 198.015C807.124 200.444 805.337 202.98 803.828 205.589C801.774 203.908 799.568 202.32 797.183 200.857C769.596 183.887 730.871 188.935 710.696 212.138C698.934 225.669 696.094 242.372 701.22 257.317H880V182.371Z" fill="#00507D"/>
<path d="M182.69 241.814C182.417 238.753 181.679 235.833 180.546 233.098C181.014 233.083 181.464 233.073 181.915 233.045C210.441 231.281 231.641 207.917 229.273 180.865C227.101 156.131 205.964 136.882 180.558 135.127C181.747 130.808 182.204 126.222 181.788 121.499C179.818 98.9463 158.941 81.859 135.158 83.3365C113.633 84.6675 97.1196 100.754 95.6452 120.513C77.5117 125.857 65.1245 142.454 66.7705 161.285C68.1155 176.609 78.3968 189.333 92.3398 195.192C84.9003 200.809 80.4732 209.729 81.3324 219.484C82.7077 235.202 97.2571 247.11 113.827 246.08C115.289 245.992 116.706 245.773 118.095 245.496C118.104 245.598 118.095 245.71 118.107 245.817C118.468 249.947 119.685 253.819 121.559 257.317H179.714C182.048 252.658 183.175 247.367 182.69 241.814" fill="#00507D"/>
<path d="M226.281 244.661C225.003 204.345 185.11 172.547 137.178 173.626C120.708 173.995 105.42 178.202 92.5201 185.198C92.5122 184.917 92.5201 184.64 92.5123 184.358C91.2834 145.694 53.0214 115.188 7.04846 116.228C-23.6579 116.913 -50.014 131.508 -63.7811 152.642C-71.9725 149.144 -81.2831 147.259 -91.1169 147.482C-120.194 148.138 -143.602 166.965 -146.425 190.688C-156.083 187.705 -166.554 186.165 -177.467 186.408C-223.126 187.438 -259.244 219.057 -258.848 257.317H225.368C226.084 253.197 226.419 248.97 226.281 244.661" fill="#00507D"/>
<path d="M2037.12 175.36C2032.07 174.51 2027.03 174.083 2022.06 174.01C2023.42 170.73 2024.55 167.339 2025.39 163.831C2035.03 123.186 2003.68 83.6575 1955.36 75.5439C1914.15 68.6253 1873.94 86.7859 1856.99 117.468C1847.12 110.068 1834.86 104.709 1820.96 102.372C1790.56 97.2656 1760.81 107.998 1743.71 127.772C1738.77 126.1 1733.59 124.775 1728.18 123.861C1681.16 115.966 1635.44 141.624 1626.05 181.167C1618.79 211.77 1635.43 241.707 1665.11 257.347H2102.92C2111.4 219.519 2082.11 182.911 2037.12 175.36Z" fill="#D8EDEE"/>
<path d="M940.142 173.102C940.938 172.878 941.715 172.635 942.476 172.378C942.636 173.699 942.872 175.01 943.168 176.313C942.227 175.196 941.208 174.136 940.142 173.102ZM1053.72 192.724C1050.27 191.495 1046.74 190.669 1043.2 190.164C1044.21 188.658 1045.14 187.089 1045.96 185.451C1057.53 162.335 1044.63 135.711 1017.14 125.994C1002.02 120.63 985.638 121.515 972.038 127.243C969.142 114.309 958.844 102.804 943.345 97.3098C924.519 90.6586 903.505 94.8078 890.069 106.41C886.536 103.577 882.492 101.123 878 99.1365V247.197C894.028 252.43 911.263 250.987 925.28 244.399C927.854 249.228 931.581 253.635 936.244 257.347H1068.79C1072.98 253.819 1076.46 249.573 1078.9 244.695C1089.01 224.494 1077.73 201.227 1053.72 192.724Z" fill="#D8EDEE"/>
<path d="M1707.73 228.468C1715.08 211.449 1710.54 193.244 1697.69 180.267C1702.51 176.672 1706.36 172.047 1708.71 166.601C1715.67 150.48 1707.09 132.805 1689.42 125.163C1694.21 120.635 1698.1 115.281 1700.71 109.232C1711.77 83.6378 1696.06 55.3521 1665.63 46.0532C1635.2 36.7536 1601.56 49.9591 1590.5 75.558C1589.27 78.4153 1588.39 81.3011 1587.8 84.1914C1585.24 83.0452 1582.57 82.0297 1579.76 81.1696C1547.3 71.2533 1511.41 85.3481 1499.62 112.652C1489.56 135.929 1500.27 161.28 1523.76 174.408C1516.62 179.378 1510.91 185.957 1507.51 193.813C1500.09 210.982 1505.78 229.459 1520.27 241.518C1518.37 244.219 1516.73 247.095 1515.41 250.151C1514.38 252.532 1513.58 254.937 1512.99 257.347H1674.34C1689.32 252.357 1701.8 242.208 1707.73 228.468Z" fill="#D8EDEE"/>
<path d="M1475.36 109.213C1478.32 105.544 1480.71 101.405 1482.34 96.8726C1490.15 75.2328 1477.99 52.9666 1455.17 47.1462C1434.52 41.8748 1412.23 51.8827 1402.39 69.8691C1383.19 69.3688 1364.53 81.0968 1358 99.1703C1352.7 113.872 1356.85 128.855 1367.35 138.543C1358 141.531 1350.06 148.513 1346.68 157.875C1341.24 172.951 1349.72 188.469 1365.61 192.525C1367.02 192.885 1368.43 193.113 1369.85 193.274C1369.81 193.376 1369.75 193.473 1369.72 193.575C1363.86 209.802 1372.98 226.501 1390.09 230.868C1407.21 235.231 1425.83 225.616 1431.68 209.394C1432.74 206.454 1433.3 203.505 1433.42 200.615C1433.86 200.736 1434.28 200.867 1434.72 200.979C1462.08 207.965 1491.86 192.589 1501.23 166.63C1509.79 142.896 1498.31 118.541 1475.36 109.213Z" fill="#D8EDEE"/>
<path d="M1498.68 184.115C1497.4 143.8 1457.51 112.002 1409.58 113.08C1393.1 113.454 1377.82 117.657 1364.92 124.653C1364.91 124.371 1364.92 124.094 1364.91 123.812C1363.68 85.1492 1325.41 54.6477 1279.45 55.6827C1248.74 56.3677 1222.38 70.962 1208.62 92.0963C1200.42 88.5983 1191.12 86.7183 1181.28 86.9368C1152.2 87.5926 1128.8 106.419 1125.97 130.143C1116.31 127.16 1105.84 125.62 1094.93 125.863C1048.75 126.903 1012.31 159.226 1013.55 198.069C1014.36 223.59 1031.24 245.565 1055.81 257.347H1430.7C1470.52 249.952 1499.82 219.669 1498.68 184.115Z" fill="#D8EDEE"/>
<path d="M1989.9 160.484C1952.59 144.242 1907.97 152.332 1881.59 177.877C1874.54 168.461 1864.52 160.455 1851.93 154.974C1824.4 142.998 1792.28 146.384 1769.34 161.402C1765.14 158.647 1760.6 156.165 1755.7 154.032C1713.12 135.497 1660.73 149.508 1638.71 185.32C1624.15 208.981 1626.49 236.227 1642.02 257.347H2030.56C2049.42 221.375 2031.99 178.8 1989.9 160.484Z" fill="#00507D"/>
<path d="M1088.39 232.746C1086.4 213.414 1066.16 199.091 1043.18 200.758C1039.87 200.991 1036.7 201.564 1033.68 202.4C1033.73 200.865 1033.69 199.315 1033.53 197.751C1031.26 175.625 1008.1 159.237 981.804 161.152C967.329 162.192 954.924 168.571 947.075 177.773C938.466 168.644 924.76 163.197 909.918 164.266C891.904 165.583 877.476 176.116 872.636 189.875C872.425 189.822 872.21 189.792 872 189.744V257.305H1079.7C1085.94 250.562 1089.33 241.928 1088.39 232.746Z" fill="#00507D"/>
<path d="M1697.69 217.284C1702.51 213.689 1706.36 209.063 1708.71 203.617C1715.67 187.497 1707.09 169.822 1689.42 162.18C1694.21 157.651 1698.1 152.297 1700.71 146.249C1711.77 120.655 1696.06 92.3682 1665.63 83.0693C1635.2 73.7659 1601.56 86.9759 1590.5 112.575C1589.27 115.431 1588.39 118.317 1587.8 121.208C1585.24 120.062 1582.57 119.046 1579.76 118.186C1547.3 108.27 1511.41 122.365 1499.62 149.669C1489.56 172.946 1500.27 198.297 1523.76 211.42C1516.62 216.395 1510.91 222.973 1507.51 230.829C1503.69 239.677 1503.37 248.864 1505.92 257.347H1710.31C1713.41 242.839 1708.51 228.211 1697.69 217.284Z" fill="#00507D"/>
<path d="M1490.69 241.843C1490.42 238.783 1489.68 235.863 1488.55 233.127C1489.01 233.113 1489.46 233.103 1489.92 233.074C1518.44 231.31 1539.64 207.946 1537.27 180.895C1535.1 156.16 1513.96 136.911 1488.56 135.157C1489.75 130.838 1490.2 126.251 1489.79 121.529C1487.82 98.9758 1466.94 81.8885 1443.16 83.366C1421.63 84.697 1405.12 100.784 1403.65 120.543C1385.51 125.887 1373.12 142.484 1374.77 161.314C1376.12 176.639 1386.4 189.363 1400.34 195.222C1392.9 200.838 1388.47 209.758 1389.33 219.514C1390.71 235.231 1405.26 247.139 1421.83 246.109C1423.29 246.022 1424.71 245.803 1426.09 245.526C1426.1 245.628 1426.09 245.74 1426.11 245.847C1426.47 249.976 1427.69 253.849 1429.56 257.347H1487.71C1490.05 252.687 1491.17 247.397 1490.69 241.843Z" fill="#00507D"/>
<path d="M1534.28 244.69C1533 204.375 1493.11 172.577 1445.18 173.655C1428.71 174.025 1413.42 178.232 1400.52 185.228C1400.51 184.946 1400.52 184.669 1400.51 184.388C1399.28 145.724 1361.02 115.218 1315.05 116.258C1284.34 116.943 1257.99 131.538 1244.22 152.671C1236.03 149.173 1226.72 147.289 1216.88 147.512C1187.81 148.167 1164.4 166.994 1161.57 190.718C1151.92 187.735 1141.45 186.195 1130.53 186.438C1084.87 187.468 1048.76 219.086 1049.15 257.347H1533.37C1534.08 253.227 1534.42 249 1534.28 244.69" fill="#00507D"/>
</svg>
