<svg width="206" height="1083" viewBox="0 0 206 1083" fill="none" xmlns="http://www.w3.org/2000/svg">
<g opacity="0.690002">
<g opacity="0.690002">
<path opacity="0.690002" fill-rule="evenodd" clip-rule="evenodd" d="M86.7828 320.696L67.5077 376.322L33 1083H102.998H173L138.492 376.322L119.215 320.696L102.998 322.532L86.7828 320.696Z" fill="white"/>
</g>
</g>
<g opacity="0.690002">
<g opacity="0.690002">
<path opacity="0.690002" fill-rule="evenodd" clip-rule="evenodd" d="M95.9615 318L87.5953 373.625L72.6184 1080.3H103H133.379L118.402 373.625L110.038 318L103 319.836L95.9615 318Z" fill="white"/>
</g>
</g>
<path fill-rule="evenodd" clip-rule="evenodd" d="M87.4227 328.897C86.6566 329.772 74.9437 336.23 74.9437 336.23C74.9437 336.23 73.0841 338.077 70.4567 347.043C67.8292 356.004 66.9534 364.75 66.9534 363.983C66.9534 363.218 72.0986 357.315 72.0986 357.315C72.0986 357.315 69.8003 368.356 69.6906 378.411C69.5809 388.468 71.0034 397.648 70.8937 396.447C70.784 395.246 74.1775 386.719 74.1775 386.719C74.1775 386.719 75.2728 398.742 79.4324 409.674C83.5921 420.605 86.6566 426.289 86.4372 424.759C86.2196 423.229 89.284 412.734 89.284 412.734C89.284 412.734 91.0357 427.819 97.1646 441.154C99.43 446.085 101.247 449.878 102.639 452.704C104.03 449.878 105.846 446.085 108.113 441.154C114.242 427.819 115.994 412.734 115.994 412.734C115.994 412.734 119.058 423.229 118.841 424.759C118.621 426.289 121.686 420.605 125.845 409.674C130.005 398.742 131.1 386.719 131.1 386.719C131.1 386.719 134.494 395.246 134.384 396.447C134.274 397.648 135.697 388.468 135.587 378.411C135.477 368.356 133.179 357.315 133.179 357.315C133.179 357.315 138.323 363.218 138.323 363.983C138.323 364.75 137.449 356.004 134.821 347.043C132.194 338.077 130.334 336.23 130.334 336.23C130.334 336.23 118.621 329.772 117.855 328.897L102.639 328.468L87.4227 328.897Z" fill="#F9B059"/>
<path fill-rule="evenodd" clip-rule="evenodd" d="M76.3563 345.003L80.7701 340.058L77.0219 358.322C76.232 362.177 75.5829 366.312 75.177 370.419L77.2138 365.228L79.1812 386.251C79.8322 393.207 81.6642 401.411 84.129 407.891C84.3795 408.548 84.6336 409.208 84.8896 409.865L91.4518 387.536L94.2749 412.16C95.2732 420.749 98.1567 431.281 101.731 439.061C102.033 439.716 102.335 440.37 102.638 441.023C102.942 440.37 103.245 439.716 103.545 439.061C107.121 431.281 110.003 420.751 111.001 412.162L113.826 387.536L120.389 409.865C120.645 409.208 120.897 408.548 121.147 407.891C123.614 401.411 125.446 393.207 126.095 386.251L128.062 365.228L130.101 370.419C129.693 366.312 129.046 362.177 128.254 358.322L124.506 340.058L128.922 345.003C128.318 343.21 127.589 341.269 126.89 340.062C125.086 339.063 123.287 338.048 121.495 337.024C120.272 336.324 117.946 335.072 116.148 333.868L102.638 333.487L89.1279 333.868C87.3305 335.072 85.0048 336.324 83.7816 337.024C81.9915 338.048 80.1924 339.063 78.3859 340.062C77.6892 341.269 76.9579 343.21 76.3563 345.003Z" fill="#F7CE78"/>
<path fill-rule="evenodd" clip-rule="evenodd" d="M102.639 423.591C103.743 419.476 104.562 415.303 105.001 411.475L111.219 357.257L119.961 386.997L122.47 360.173L118.833 342.451C118.72 342.387 118.608 342.323 118.495 342.257C117.094 341.456 115.688 340.685 114.315 339.851L102.639 339.522L90.964 339.851C89.5909 340.685 88.1848 341.456 86.7842 342.257C86.6709 342.323 86.5575 342.387 86.4441 342.451L82.9317 359.57C82.9116 359.908 82.8824 360.447 82.8659 360.785L85.316 386.997L94.0577 357.255L100.276 411.473C100.715 415.302 101.534 419.474 102.639 423.591Z" fill="#F6F0EB"/>
<path fill-rule="evenodd" clip-rule="evenodd" d="M76.6608 312.35H129.34L137.635 343.439H68.3652L76.6608 312.35Z" fill="#265FA6"/>
<path fill-rule="evenodd" clip-rule="evenodd" d="M74.6514 319.882H76.851C76.0355 323.198 75.167 326.729 74.2418 330.49C73.2526 334.511 72.1903 338.82 71.053 343.439H68.3652C69.5994 338.82 70.7477 334.511 71.8228 330.488C72.8248 326.729 73.7683 323.198 74.6514 319.882Z" fill="#22589C"/>
<path fill-rule="evenodd" clip-rule="evenodd" d="M80.0946 319.882H82.2997C81.6543 323.198 80.9668 326.729 80.2336 330.49C79.451 334.511 78.61 338.82 77.7104 343.439H75.0153C76.0118 338.82 76.9406 334.511 77.8091 330.49C78.6191 326.729 79.3797 323.198 80.0946 319.882Z" fill="#22589C"/>
<path fill-rule="evenodd" clip-rule="evenodd" d="M85.5432 319.882H87.7482C87.2729 323.198 86.7664 326.729 86.227 330.49C85.6492 334.511 85.0294 338.82 84.3657 343.439H81.6724C82.4312 338.82 83.1406 334.511 83.8007 330.49C84.4187 326.729 84.9983 323.198 85.5432 319.882Z" fill="#22589C"/>
<path fill-rule="evenodd" clip-rule="evenodd" d="M90.9918 319.882H93.1969C92.8915 323.198 92.5661 326.729 92.2187 330.49C91.8475 334.511 91.4489 338.82 91.0229 343.439H88.3278C88.8507 338.82 89.3389 334.511 89.7923 330.49C90.2184 326.729 90.617 323.198 90.9918 319.882Z" fill="#22589C"/>
<path fill-rule="evenodd" clip-rule="evenodd" d="M96.4408 319.882H98.6477C98.5106 323.198 98.3661 326.729 98.2107 330.49C98.0462 334.511 97.8706 338.82 97.6805 343.439H94.9872C95.2706 338.82 95.5376 334.511 95.7862 330.49C96.0184 326.729 96.236 323.198 96.4408 319.882Z" fill="#22589C"/>
<path fill-rule="evenodd" clip-rule="evenodd" d="M101.889 319.882H104.094C104.129 323.198 104.166 326.729 104.204 330.49C104.244 334.511 104.288 338.82 104.338 343.439H101.643C101.692 338.82 101.736 334.511 101.778 330.49C101.818 326.729 101.855 323.198 101.889 319.882Z" fill="#22589C"/>
<path fill-rule="evenodd" clip-rule="evenodd" d="M107.338 319.882H109.543C109.748 323.198 109.966 326.729 110.196 330.49C110.445 334.511 110.71 338.82 110.995 343.439H108.298C108.11 338.82 107.934 334.511 107.77 330.49C107.618 326.729 107.473 323.198 107.338 319.882Z" fill="#22589C"/>
<path fill-rule="evenodd" clip-rule="evenodd" d="M112.786 319.882H114.993C115.366 323.201 115.764 326.729 116.189 330.49C116.642 334.511 117.128 338.818 117.651 343.439H114.956C114.53 338.818 114.133 334.511 113.762 330.49C113.417 326.729 113.091 323.198 112.786 319.882Z" fill="#22589C"/>
<path fill-rule="evenodd" clip-rule="evenodd" d="M118.234 319.882H120.441C120.984 323.201 121.564 326.729 122.182 330.49C122.842 334.511 123.548 338.818 124.307 343.439H121.613C120.95 338.818 120.332 334.511 119.756 330.49C119.216 326.729 118.71 323.201 118.234 319.882Z" fill="#22589C"/>
<path fill-rule="evenodd" clip-rule="evenodd" d="M123.683 319.882H125.89C126.603 323.201 127.364 326.729 128.174 330.49C129.04 334.511 129.967 338.818 130.964 343.439H128.269C127.369 338.818 126.53 334.511 125.747 330.49C125.016 326.729 124.33 323.201 123.683 319.882Z" fill="#22589C"/>
<path fill-rule="evenodd" clip-rule="evenodd" d="M129.132 319.882H131.35C132.235 323.201 133.176 326.729 134.178 330.49C135.252 334.511 136.402 338.818 137.634 343.439H134.926C133.789 338.818 132.73 334.511 131.741 330.49C130.816 326.729 129.947 323.201 129.132 319.882Z" fill="#22589C"/>
<path fill-rule="evenodd" clip-rule="evenodd" d="M57.7937 264.738C56.7167 265.598 10.2307 296.797 7.3601 301.314C4.48764 305.833 0.000671387 354.243 0.000671387 354.243L22.0771 326.703L66.6524 317.568L57.7937 264.738Z" fill="#E4761D"/>
<path fill-rule="evenodd" clip-rule="evenodd" d="M56.1858 292.848C41.2713 298.643 20.0359 307.013 20.0359 307.013L0 354.243L22.0765 326.703L66.6517 317.568C62.706 309.637 59.221 301.375 56.1858 292.848Z" fill="#DB6E00"/>
<path fill-rule="evenodd" clip-rule="evenodd" d="M20.0366 307.013L0.000671387 354.241L22.0771 326.704L20.0366 307.013Z" fill="#CE6612"/>
<path fill-rule="evenodd" clip-rule="evenodd" d="M148.206 264.738C149.283 265.598 195.769 296.797 198.642 301.314C201.512 305.833 205.999 354.243 205.999 354.243L183.925 326.703L139.349 317.568L148.206 264.738Z" fill="#E4761D"/>
<path fill-rule="evenodd" clip-rule="evenodd" d="M149.814 292.848C164.729 298.643 185.964 307.013 185.964 307.013L206 354.243L183.924 326.703L139.348 317.568C143.296 309.637 146.779 301.375 149.814 292.848Z" fill="#DB6E00"/>
<path fill-rule="evenodd" clip-rule="evenodd" d="M185.963 307.013L205.999 354.241L183.924 326.704L185.963 307.013Z" fill="#CE6612"/>
<path fill-rule="evenodd" clip-rule="evenodd" d="M103.001 -3.19341e-05C167.837 81.3974 186.44 222.912 139.348 317.569H66.6518C19.5606 222.912 38.163 81.3974 103.001 -3.19341e-05Z" fill="#E5EEF9"/>
<path fill-rule="evenodd" clip-rule="evenodd" d="M103.001 5.61685e-06C82.027 26.3291 65.893 58.9483 55.2533 94.2352H150.747C140.107 58.9483 123.973 26.3291 103.001 5.61685e-06Z" fill="#E4761D"/>
<path fill-rule="evenodd" clip-rule="evenodd" d="M150.746 94.2357H55.253C54.5015 96.7335 53.7756 99.2441 53.0771 101.766H152.922C152.226 99.2441 151.5 96.7335 150.746 94.2357Z" fill="#4985C8"/>
<path fill-rule="evenodd" clip-rule="evenodd" d="M103.001 206.87C122.64 206.87 138.657 190.874 138.657 171.262C138.657 151.648 122.64 135.654 103.001 135.654C83.3598 135.654 67.3427 151.648 67.3427 171.262C67.3427 190.874 83.3598 206.87 103.001 206.87Z" fill="#E47D7D"/>
<path fill-rule="evenodd" clip-rule="evenodd" d="M103.001 201.814C119.852 201.814 133.594 188.089 133.594 171.262C133.594 154.435 119.852 140.71 103.001 140.71C86.1502 140.71 72.4059 154.435 72.4059 171.262C72.4059 188.089 86.1502 201.814 103.001 201.814Z" fill="#17B8F7"/>
<path fill-rule="evenodd" clip-rule="evenodd" d="M130.811 167.297C130.811 185.764 115.822 200.733 97.3291 200.733C96.3692 200.733 95.4184 200.693 94.4786 200.614C97.1829 201.394 100.043 201.814 103.001 201.814C119.897 201.814 133.594 188.136 133.594 171.261C133.594 164.537 131.42 158.32 127.732 153.273C129.709 157.538 130.811 162.289 130.811 167.297Z" fill="#0EA8EE"/>
<path fill-rule="evenodd" clip-rule="evenodd" d="M103.001 137.371L103.453 137.588L103.906 137.808L104.017 138.295L104.129 138.784L103.816 139.177L103.502 139.569H103.001H102.498L102.185 139.177L101.871 138.784L101.982 138.295L102.094 137.808L102.547 137.588L103.001 137.371Z" fill="#31587D"/>
<path fill-rule="evenodd" clip-rule="evenodd" d="M79.0027 147.297L79.4763 147.131L79.9517 146.967L80.3758 147.233L80.8019 147.5L80.8586 147.999L80.9134 148.497L80.5605 148.853L80.204 149.207L79.7048 149.151L79.2057 149.094L78.9387 148.669L78.6699 148.245L78.8363 147.77L79.0027 147.297Z" fill="#31587D"/>
<path fill-rule="evenodd" clip-rule="evenodd" d="M69.0626 171.261L69.2802 170.81L69.4978 170.358L69.9878 170.246L70.4778 170.135L70.8709 170.447L71.264 170.761V171.261V171.763L70.8709 172.076L70.4778 172.39L69.9878 172.278L69.4978 172.167L69.2802 171.714L69.0626 171.261Z" fill="#31587D"/>
<path fill-rule="evenodd" clip-rule="evenodd" d="M79.0027 195.226L78.8363 194.753L78.6699 194.278L78.9387 193.855L79.2057 193.429L79.7048 193.373L80.204 193.316L80.5605 193.672L80.9134 194.026L80.8586 194.525L80.8019 195.023L80.3758 195.292L79.9517 195.558L79.4763 195.392L79.0027 195.226Z" fill="#31587D"/>
<path fill-rule="evenodd" clip-rule="evenodd" d="M103.001 205.152L102.547 204.935L102.094 204.718L101.982 204.228L101.871 203.739L102.185 203.347L102.498 202.954H103.001H103.502L103.816 203.347L104.129 203.739L104.017 204.228L103.906 204.718L103.453 204.935L103.001 205.152Z" fill="#31587D"/>
<path fill-rule="evenodd" clip-rule="evenodd" d="M126.998 195.226L126.525 195.392L126.049 195.558L125.623 195.292L125.199 195.023L125.142 194.525L125.086 194.026L125.44 193.672L125.797 193.316L126.296 193.373L126.795 193.429L127.062 193.855L127.331 194.278L127.165 194.753L126.998 195.226Z" fill="#31587D"/>
<path fill-rule="evenodd" clip-rule="evenodd" d="M136.938 171.261L136.72 171.714L136.502 172.167L136.012 172.278L135.522 172.39L135.129 172.076L134.736 171.763V171.261V170.761L135.129 170.447L135.522 170.135L136.012 170.246L136.502 170.358L136.72 170.81L136.938 171.261Z" fill="#31587D"/>
<path fill-rule="evenodd" clip-rule="evenodd" d="M126.998 147.297L127.165 147.77L127.331 148.245L127.062 148.669L126.795 149.094L126.296 149.151L125.797 149.207L125.44 148.853L125.086 148.497L125.142 147.999L125.199 147.5L125.623 147.233L126.049 146.967L126.525 147.131L126.998 147.297Z" fill="#31587D"/>
<path fill-rule="evenodd" clip-rule="evenodd" d="M66.6511 329.232H139.348V317.568H66.6511V329.232Z" fill="#4985C8"/>
<path fill-rule="evenodd" clip-rule="evenodd" d="M71.9487 321.702L72.7368 322.08L73.523 322.46L73.7187 323.309L73.9125 324.16L73.3676 324.843L72.8227 325.524H71.9487H71.0747L70.5317 324.843L69.985 324.16L70.1806 323.309L70.3745 322.46L71.1607 322.08L71.9487 321.702Z" fill="#31587D"/>
<path fill-rule="evenodd" clip-rule="evenodd" d="M87.4744 321.702L88.2624 322.08L89.0486 322.46L89.2424 323.309L89.4381 324.16L88.8932 324.843L88.3483 325.524H87.4744H86.6004L86.0573 324.843L85.5125 324.16L85.7063 323.309L85.9001 322.46L86.6863 322.08L87.4744 321.702Z" fill="#31587D"/>
<path fill-rule="evenodd" clip-rule="evenodd" d="M103.001 321.702L103.787 322.08L104.575 322.46L104.769 323.309L104.963 324.16L104.418 324.843L103.875 325.524H103.001H102.127L101.582 324.843L101.037 324.16L101.231 323.309L101.427 322.46L102.213 322.08L103.001 321.702Z" fill="#31587D"/>
<path fill-rule="evenodd" clip-rule="evenodd" d="M118.526 321.702L119.314 322.08L120.1 322.46L120.296 323.309L120.489 324.16L119.945 324.843L119.4 325.524H118.526H117.652L117.109 324.843L116.564 324.16L116.758 323.309L116.951 322.46L117.739 322.08L118.526 321.702Z" fill="#31587D"/>
<path fill-rule="evenodd" clip-rule="evenodd" d="M134.051 321.702L134.839 322.08L135.625 322.46L135.821 323.309L136.015 324.16L135.47 324.843L134.925 325.524H134.051H133.177L132.634 324.843L132.087 324.16L132.283 323.309L132.477 322.46L133.265 322.08L134.051 321.702Z" fill="#31587D"/>
<path fill-rule="evenodd" clip-rule="evenodd" d="M103 270.499L108.701 292.22L103 354.241V270.499Z" fill="#AC5A2A"/>
<path fill-rule="evenodd" clip-rule="evenodd" d="M103.001 270.499L97.2999 292.22L103.001 354.241V270.499Z" fill="#DB6E00"/>
<path fill-rule="evenodd" clip-rule="evenodd" d="M99.5771 9.39319C92.4791 14.9055 69.2782 69.7748 63.4528 87.1772H85.1471C88.1914 62.8949 92.4279 35.2494 99.5771 9.39319Z" fill="#EA926A"/>
<path fill-rule="evenodd" clip-rule="evenodd" d="M55.833 108.951C55.833 108.951 47.0584 148.389 46.7823 181.801C46.6452 198.513 52.5199 286.371 65.158 296.559L87.0992 295.737L87.101 208.917C58.3764 202.333 53.7761 148.484 88.3352 131.681L87.9256 107.305C77.1269 107.307 66.6171 108.268 55.833 108.951Z" fill="#FCFDFF"/>
<path fill-rule="evenodd" clip-rule="evenodd" d="M97.2505 197.39C85.4535 196.448 76.1322 184.965 76.1322 170.937C76.1322 156.909 85.4535 145.426 97.2505 144.482V197.39Z" fill="#3DC6FA"/>
<path fill-rule="evenodd" clip-rule="evenodd" d="M48.9113 274.033L51.3102 284.234L13.3264 305.529L3.65765 332.712L8.93633 301.795L48.9113 274.033Z" fill="#E58044"/>
</svg>
